<svg width="25" height="25" viewBox="0 0 25 25" fill="none" xmlns="http://www.w3.org/2000/svg">
<path d="M21.535 8.73522C21.3449 8.73501 21.1549 8.72194 20.9665 8.69611C19.8562 8.54716 18.7632 7.98361 17.89 7.11035C17.0167 6.23648 16.4532 5.14413 16.3036 4.03317C16.1441 2.84649 16.4854 1.73242 17.2414 0.976467C17.9973 0.220516 19.1114 -0.121463 20.2981 0.0386651C21.409 0.188242 22.502 0.751171 23.3752 1.62505C24.2485 2.49892 24.812 3.59127 24.9616 4.70161C25.1211 5.88891 24.7791 7.00298 24.0238 7.75893C23.3901 8.392 22.5045 8.73522 21.535 8.73522ZM19.2064 5.79333C19.7842 6.37178 20.5165 6.7572 21.2154 6.84844C21.8305 6.93161 22.3605 6.78637 22.7049 6.43943C23.0494 6.09249 23.1971 5.56307 23.114 4.94987C23.0202 4.25102 22.6348 3.51865 22.0589 2.94083C20.9349 1.81683 19.3311 1.52016 18.5578 2.29287C17.7845 3.06558 18.0817 4.66934 19.2064 5.79333Z" fill="white"/>
<path d="M8.23396 22.0358C8.04401 22.0357 7.85428 22.0229 7.66607 21.9973C6.55511 21.8477 5.46215 21.2848 4.5889 20.4109C3.71565 19.537 3.1521 18.4447 3.00252 17.3344C2.84302 16.1471 3.18499 15.033 3.94032 14.277C4.11497 14.1024 4.35184 14.0043 4.59883 14.0043C4.84582 14.0043 5.08269 14.1024 5.25734 14.277C5.43198 14.4517 5.5301 14.6886 5.5301 14.9355C5.5301 15.1825 5.43198 15.4194 5.25734 15.5941C4.91039 15.9404 4.76516 16.4704 4.84771 17.0836C4.94205 17.7825 5.32747 18.5148 5.90281 19.0927C7.03239 20.221 8.63304 20.5158 9.40636 19.7431C9.49224 19.6542 9.59497 19.5833 9.70855 19.5345C9.82213 19.4857 9.9443 19.46 10.0679 19.4589C10.1915 19.4578 10.3141 19.4814 10.4285 19.5282C10.5429 19.575 10.6469 19.6441 10.7343 19.7316C10.8217 19.819 10.8908 19.9229 10.9376 20.0373C10.9845 20.1517 11.008 20.2743 11.0069 20.3979C11.0059 20.5216 10.9802 20.6437 10.9314 20.7573C10.8826 20.8709 10.8117 20.9736 10.7228 21.0595C10.0891 21.6932 9.20465 22.0358 8.23396 22.0358Z" fill="white"/>
<path d="M0.930742 25C0.791373 24.9999 0.653789 24.9686 0.528142 24.9083C0.402495 24.848 0.29199 24.7603 0.204782 24.6516C0.117573 24.5428 0.0558855 24.4159 0.02427 24.2802C-0.00734551 24.1445 -0.00808219 24.0034 0.0221146 23.8673C0.0382514 23.7947 0.423053 22.0674 0.95743 20.162C1.9604 16.5871 2.56553 15.6517 2.98074 15.2365L17.2414 0.976477C17.3272 0.887559 17.43 0.816635 17.5435 0.767844C17.6571 0.719052 17.7793 0.69337 17.9029 0.692296C18.0265 0.691222 18.1491 0.714777 18.2635 0.761587C18.3779 0.808398 18.4819 0.877525 18.5693 0.964937C18.6567 1.05235 18.7258 1.15629 18.7726 1.27071C18.8194 1.38512 18.843 1.50771 18.8419 1.63133C18.8409 1.75494 18.8152 1.8771 18.7664 1.99068C18.7176 2.10427 18.6467 2.207 18.5577 2.29288L4.29775 16.5536C4.24127 16.6094 3.72241 17.2009 2.74986 20.6654C2.53201 21.4418 2.33713 22.1977 2.18507 22.8153C2.80572 22.662 3.56353 22.4671 4.34182 22.248C7.80007 21.2773 8.39092 20.7585 8.44678 20.7026L22.7068 6.44254C22.8813 6.26789 23.1181 6.16975 23.3651 6.16969C23.612 6.16963 23.8488 6.26767 24.0235 6.44223C24.1981 6.6168 24.2963 6.85359 24.2963 7.10052C24.2964 7.34745 24.1984 7.58429 24.0238 7.75894L9.76317 22.0209C9.34796 22.4361 8.41327 23.0412 4.83772 24.0448C2.93543 24.5786 1.20507 24.9634 1.13245 24.9795C1.06616 24.9937 0.998524 25.0005 0.930742 25Z" fill="white"/>
<path d="M20.7877 5.45387C20.6653 5.45384 20.5442 5.42971 20.4312 5.38286C20.3182 5.336 20.2156 5.26733 20.1292 5.18078L19.8188 4.87046C19.6492 4.69487 19.5554 4.45971 19.5575 4.21561C19.5597 3.97151 19.6576 3.73801 19.8302 3.5654C20.0028 3.39279 20.2363 3.29488 20.4804 3.29276C20.7245 3.29064 20.9596 3.38448 21.1352 3.55406L21.4455 3.86439C21.5758 3.99455 21.6645 4.16041 21.7005 4.341C21.7365 4.52159 21.7181 4.70879 21.6477 4.87893C21.5772 5.04907 21.4579 5.19451 21.3049 5.29685C21.1518 5.39919 20.9718 5.45383 20.7877 5.45387Z" fill="white"/>
</svg>
