<svg width="25" height="25" viewBox="0 0 25 25" fill="none" xmlns="http://www.w3.org/2000/svg">
<path d="M3.125 6.24988H5.20833H21.875" stroke="white" stroke-width="1.5" stroke-linecap="round" stroke-linejoin="round"/>
<path d="M8.3335 6.24989V4.16655C8.3335 3.61401 8.55299 3.08412 8.94369 2.69341C9.33439 2.30271 9.8643 2.08322 10.4168 2.08322H14.5835C15.136 2.08322 15.6659 2.30271 16.0566 2.69341C16.4474 3.08412 16.6668 3.61401 16.6668 4.16655V6.24989H8.3335ZM19.7918 6.24989V20.8332C19.7918 21.3857 19.5724 21.9156 19.1816 22.3064C18.7909 22.6971 18.261 22.9166 17.7085 22.9166H7.29183C6.7393 22.9166 6.20939 22.6971 5.81869 22.3064C5.42799 21.9156 5.2085 21.3857 5.2085 20.8332V6.24989H19.7918Z" stroke="white" stroke-width="1.5" stroke-linecap="round" stroke-linejoin="round"/>
</svg>
