<svg width="519" height="100" viewBox="0 0 519 100" fill="none" xmlns="http://www.w3.org/2000/svg">
<path d="M42.2828 30.88C39.0828 30.88 37.4828 29.28 37.4828 26.08V16.6C37.4828 13.4 35.8828 11.8 32.6828 11.8H16.6028C13.4028 11.8 11.8028 13.4 11.8028 16.6V35.68C11.8028 38.88 13.4028 40.48 16.6028 40.48H36.2828C38.6028 40.48 40.5628 41.28 42.1628 42.88L46.0028 46.72C47.6028 48.32 48.4028 50.28 48.4028 52.6V76.84C48.4028 79.16 47.6028 81.16 46.0028 82.84L42.1628 86.68C40.5628 88.28 38.6028 89.08 36.2828 89.08H13.1228C10.8028 89.08 8.84281 88.28 7.24281 86.68L3.28281 82.72C1.68281 81.12 0.882813 79.16 0.882813 76.84V65.08C0.882813 61.88 2.48281 60.28 5.68281 60.28H7.00281C10.2028 60.28 11.8028 61.88 11.8028 65.08V73.36C11.8028 76.56 13.4028 78.16 16.6028 78.16H32.6828C35.8828 78.16 37.4828 76.56 37.4828 73.36V56.08C37.4828 52.88 35.8828 51.28 32.6828 51.28H13.1228C10.7228 51.28 8.72281 50.48 7.12281 48.88L3.28281 45.04C1.68281 43.44 0.882813 41.48 0.882813 39.16V13.12C0.882813 10.8 1.68281 8.79999 3.28281 7.12L7.12281 3.28C8.72281 1.68 10.6828 0.879999 13.0028 0.879999H36.2828C38.6028 0.879999 40.5628 1.72 42.1628 3.39999L46.0028 7.24C47.6028 8.83999 48.4028 10.8 48.4028 13.12V26.08C48.4028 29.28 46.8028 30.88 43.6028 30.88H42.2828ZM88.0141 78.16C91.2141 78.16 92.8141 79.76 92.8141 82.96V84.28C92.8141 87.48 91.2141 89.08 88.0141 89.08H79.7341C77.4141 89.08 75.4541 88.28 73.8541 86.68L69.8941 82.72C68.2941 81.12 67.4941 79.16 67.4941 76.84V45.4C67.4941 43.88 67.0941 42.72 66.2941 41.92C65.4941 41.04 64.3341 40.6 62.8141 40.6C59.6141 40.6 58.0141 39 58.0141 35.8V34.6C58.0141 33.08 58.4141 31.92 59.2141 31.12C60.0941 30.24 61.2941 29.8 62.8141 29.8C64.3341 29.8 65.4941 29.4 66.2941 28.6C67.0941 27.72 67.4941 26.52 67.4941 25V20.68C67.4941 17.48 69.0941 15.88 72.2941 15.88H73.6141C76.8141 15.88 78.4141 17.48 78.4141 20.68V25C78.4141 28.2 80.0141 29.8 83.2141 29.8H88.0141C91.2141 29.8 92.8141 31.4 92.8141 34.6V35.8C92.8141 39 91.2141 40.6 88.0141 40.6H83.2141C80.0141 40.6 78.4141 42.2 78.4141 45.4V73.36C78.4141 76.56 80.0141 78.16 83.2141 78.16H88.0141ZM130.595 34.6C130.595 31.4 132.195 29.8 135.395 29.8H136.715C139.915 29.8 141.515 31.4 141.515 34.6V76.84C141.515 79.16 140.715 81.16 139.115 82.84L135.275 86.68C133.675 88.28 131.715 89.08 129.395 89.08H114.635C112.315 89.08 110.355 88.28 108.755 86.68L104.795 82.72C103.195 81.12 102.395 79.16 102.395 76.84V34.6C102.395 31.4 103.995 29.8 107.195 29.8H108.515C111.715 29.8 113.315 31.4 113.315 34.6V73.36C113.315 76.56 114.915 78.16 118.115 78.16H125.795C128.995 78.16 130.595 76.56 130.595 73.36V34.6ZM160.99 32.2C162.59 30.6 164.59 29.8 166.99 29.8H178.03C181.23 29.8 182.83 28.2 182.83 25V7.72C182.83 4.51999 184.43 2.91999 187.63 2.91999H188.95C192.15 2.91999 193.75 4.51999 193.75 7.72V84.28C193.75 87.48 192.15 89.08 188.95 89.08H166.99C164.67 89.08 162.71 88.28 161.11 86.68L157.15 82.72C155.55 81.12 154.75 79.16 154.75 76.84V41.92C154.75 39.6 155.55 37.64 157.15 36.04L160.99 32.2ZM165.67 73.36C165.67 76.56 167.27 78.16 170.47 78.16H178.03C181.23 78.16 182.83 76.56 182.83 73.36V45.52C182.83 42.32 181.23 40.72 178.03 40.72H170.47C167.27 40.72 165.67 42.32 165.67 45.52V73.36ZM227.927 58.96C231.127 58.96 232.727 57.36 232.727 54.16V34.6C232.727 31.4 234.327 29.8 237.527 29.8H238.847C242.047 29.8 243.647 31.4 243.647 34.6V87.64C243.647 89.96 242.847 91.92 241.247 93.52L237.287 97.48C235.687 99.08 233.727 99.88 231.407 99.88H210.407C207.207 99.88 205.607 98.28 205.607 95.08V93.76C205.607 90.56 207.207 88.96 210.407 88.96H227.927C231.127 88.96 232.727 87.36 232.727 84.16V74.68C232.727 71.48 231.127 69.88 227.927 69.88H216.767C214.447 69.88 212.487 69.08 210.887 67.48L206.927 63.52C205.327 61.92 204.527 59.96 204.527 57.64V34.6C204.527 31.4 206.127 29.8 209.327 29.8H210.647C213.847 29.8 215.447 31.4 215.447 34.6V54.16C215.447 57.36 217.047 58.96 220.247 58.96H227.927ZM316.571 77.44C315.691 80.16 313.891 81.52 311.171 81.52H306.491C303.611 81.52 301.771 80.2 300.971 77.56L293.411 53.56C293.091 52.68 292.651 52 292.091 51.52C291.611 51.04 291.091 50.8 290.531 50.8C289.811 50.8 289.211 51.12 288.731 51.76C288.251 52.4 288.011 53.28 288.011 54.4V84.16C288.011 87.36 286.411 88.96 283.211 88.96H282.011C278.811 88.96 277.211 87.36 277.211 84.16V7.72C277.211 4.51999 278.811 2.91999 282.011 2.91999H283.811C286.611 2.91999 288.411 4.23999 289.211 6.87999L305.531 59.08C305.851 60.2 306.291 61.04 306.851 61.6C307.411 62.16 307.971 62.44 308.531 62.44C309.171 62.44 309.771 62.16 310.331 61.6C310.891 60.96 311.331 60.08 311.651 58.96L327.011 7C327.891 4.28 329.691 2.91999 332.411 2.91999H334.451C337.651 2.91999 339.251 4.51999 339.251 7.72V84.16C339.251 87.36 337.651 88.96 334.451 88.96H333.251C330.051 88.96 328.451 87.36 328.451 84.16V55.72C328.451 54.6 328.211 53.76 327.731 53.2C327.251 52.56 326.651 52.24 325.931 52.24C324.651 52.24 323.731 53.12 323.171 54.88L316.571 77.44ZM363.513 88.96C361.193 88.96 359.233 88.16 357.633 86.56L353.673 82.6C352.073 81 351.273 79.04 351.273 76.72V62.8C351.273 61.6 351.473 60.56 351.873 59.68C352.273 58.72 352.913 57.8 353.793 56.92L357.633 53.08C359.233 51.48 361.193 50.68 363.513 50.68H374.913C378.113 50.68 379.713 49.08 379.713 45.88V45.52C379.713 42.32 378.113 40.72 374.913 40.72H356.433C353.233 40.72 351.633 39.12 351.633 35.92V34.6C351.633 31.4 353.233 29.8 356.433 29.8H378.393C380.713 29.8 382.673 30.6 384.273 32.2L388.233 36.16C389.833 37.76 390.633 39.72 390.633 42.04V84.16C390.633 87.36 389.033 88.96 385.833 88.96H363.513ZM379.713 65.32C379.713 62.12 378.113 60.52 374.913 60.52H366.993C363.793 60.52 362.193 62.12 362.193 65.32V74.32C362.193 77.52 363.793 79.12 366.993 79.12H374.913C378.113 79.12 379.713 77.52 379.713 74.32V65.32ZM420.571 72.52C419.611 70.76 418.531 69.88 417.331 69.88C416.611 69.88 416.011 70.24 415.531 70.96C415.051 71.68 414.811 72.72 414.811 74.08V84.28C414.811 87.48 413.211 89.08 410.011 89.08H408.691C405.491 89.08 403.891 87.48 403.891 84.28V6.52C403.891 3.32 405.491 1.72 408.691 1.72H410.011C413.211 1.72 414.811 3.32 414.811 6.52V40.36C414.811 41.64 415.011 42.64 415.411 43.36C415.891 44.08 416.491 44.44 417.211 44.44C418.331 44.44 419.491 43.68 420.691 42.16L427.891 32.92C429.491 30.84 431.411 29.8 433.651 29.8H435.451C436.731 29.8 437.731 30.08 438.451 30.64C439.171 31.2 439.531 31.92 439.531 32.8C439.531 33.6 439.211 34.52 438.571 35.56L426.931 52.84C426.211 53.88 425.851 55 425.851 56.2C425.851 57.32 426.131 58.4 426.691 59.44L439.531 83.32C440.011 84.28 440.251 85.16 440.251 85.96C440.251 86.92 439.891 87.68 439.171 88.24C438.451 88.8 437.491 89.08 436.291 89.08H433.771C431.131 89.08 429.211 87.96 428.011 85.72L420.571 72.52ZM486.484 61.96C486.484 65.16 484.884 66.76 481.684 66.76H463.204C460.004 66.76 458.404 68.36 458.404 71.56V73.24C458.404 76.44 460.004 78.04 463.204 78.04H481.684C484.884 78.04 486.484 79.64 486.484 82.84V84.16C486.484 87.36 484.884 88.96 481.684 88.96H459.604C457.284 88.96 455.324 88.12 453.724 86.44L449.884 82.6C448.284 81 447.484 79.04 447.484 76.72V41.92C447.484 39.6 448.284 37.64 449.884 36.04L453.724 32.2C455.324 30.6 457.284 29.8 459.604 29.8H474.364C476.684 29.8 478.644 30.6 480.244 32.2L484.084 36.04C485.684 37.64 486.484 39.6 486.484 41.92V61.96ZM458.404 52.36C458.404 55.56 460.004 57.16 463.204 57.16H470.764C473.964 57.16 475.564 55.56 475.564 52.36V45.4C475.564 42.2 473.964 40.6 470.764 40.6H463.204C460.004 40.6 458.404 42.2 458.404 45.4V52.36ZM510.581 84.16C510.581 87.36 508.981 88.96 505.781 88.96H504.461C501.261 88.96 499.661 87.36 499.661 84.16V42.04C499.661 39.72 500.461 37.76 502.061 36.16L506.021 32.2C507.621 30.6 509.581 29.8 511.901 29.8H514.061C517.261 29.8 518.861 31.4 518.861 34.6V35.92C518.861 39.12 517.501 40.72 514.781 40.72C513.421 40.72 512.381 41.16 511.661 42.04C510.941 42.84 510.581 44 510.581 45.52V84.16Z" fill="white"/>
</svg>
